<?xml version="1.0" standalone="no"?>
<!DOCTYPE svg PUBLIC "-//W3C//DTD SVG 20010904//EN"
 "http://www.w3.org/TR/2001/REC-SVG-20010904/DTD/svg10.dtd">
<svg version="1.0" xmlns="http://www.w3.org/2000/svg"
 width="512.000000pt" height="512.000000pt" viewBox="0 0 512.000000 512.000000"
 preserveAspectRatio="xMidYMid meet">
<metadata>
Created by potrace 1.11, written by Peter Selinger 2001-2013
</metadata>
<g transform="translate(0.000000,512.000000) scale(0.100000,-0.100000)"
fill="#000000" stroke="none">
<path d="M2409 4816 c-2 -2 -24 -6 -49 -9 -148 -19 -334 -76 -490 -150 -99
-47 -273 -152 -278 -168 -2 -5 -8 -9 -13 -9 -12 0 -56 -39 -176 -155 -261
-254 -424 -555 -499 -920 -28 -140 -25 -527 6 -635 5 -16 7 -30 5 -30 -3 0 0
-11 5 -26 6 -14 12 -39 15 -57 9 -49 89 -282 128 -372 95 -221 227 -457 385
-690 85 -126 256 -363 271 -375 3 -3 19 -23 36 -45 16 -22 31 -42 34 -45 4 -3
53 -63 110 -135 57 -71 109 -134 115 -140 6 -5 31 -35 56 -65 99 -121 262
-304 331 -372 143 -140 290 -144 426 -12 40 39 165 182 230 264 7 8 45 56 85
105 418 519 758 1068 927 1498 65 167 126 370 146 487 3 19 8 42 10 50 19 68
27 386 12 510 -7 62 -21 147 -33 200 -3 14 -7 36 -10 50 -7 34 -43 159 -56
195 -39 104 -145 316 -180 360 -5 6 -31 41 -60 79 -135 182 -333 345 -542 447
-137 67 -356 134 -511 155 -43 6 -431 15 -436 10z"/>
</g>
</svg>
